# xmcd
#
# Track frame offsets:
#	150
#	14760
#	28204
#	44792
#	55074
#	67957
#	79961
#	96849
#	108569
#	119778
#	141222
#	155887
#	170501
#	183688
#	196469
#	211157
#	224399
#	237339
#	252211
#	266889
#	279867
#	297470
#	311060
#
# Disc length: 4322 seconds
#
# Revision: 1
# Processed by: cddbd v1.5.1PL0 Copyright (c) Steve Scherf et al.
# Submitted via: audiograbber 1.83.01
#
DISCID=7810e017
DTITLE=Various Artist - O Melhor do Aguenta Coracao
DYEAR=2004
DGENRE=Country
TTITLE0=Trio Parada Dura - Telefone Mudo
TTITLE1=Milionario and Jose Rico - Saudade de Minha Terra
TTITLE2=Peao Carreiro and Ze Paulo - Porta do Mundo
TTITLE3=Chitaozinho and Xororo - 60 Dias Apaixonado
TTITLE4=Joao Mineiro and Marciano - Esta Noite Como Lembranca
TTITLE5=Juliano and Jardel - Sorriso Mudo
TTITLE6=Matogrosso and Mathias - 24 Horas de Amor
TTITLE7=Chrystian and Ralf - O Futuro e uma Incerteza
TTITLE8=Cezar and Paulinho - Meia Noite de Amor
TTITLE9=Milionario and Jose Rico - Lembranca
TTITLE10=Trio Parada Dura - Parede e Meia
TTITLE11=Gilberto and Gilmar - Nas Ruas do Mundo
TTITLE12=Chitaozinho and Xororo - Fio de Cabelo
TTITLE13=Joao Mineiro and Marciano - Telefone Mais
TTITLE14=Joao Renes and Reny - Ausencia
TTITLE15=Teodoro and Sampaio - Vestido de Seda
TTITLE16=Chrystian and Ralf - Quebradas da Noite
TTITLE17=Milionario and Jose Rico - Duas Camisas
TTITLE18=Joaquim and Manoel - Boate Azul
TTITLE19=Gilberto and Gilmar - So Mais Uma Vez
TTITLE20=Matogrosso and Mathias - De Igual Pra Igual
TTITLE21=Felipe and Falcao - Que Pena
TTITLE22=Joao Mineiro and Marciano - Crises de Amor
EXTD=
EXTT0=
EXTT1=
EXTT2=
EXTT3=
EXTT4=
EXTT5=
EXTT6=
EXTT7=
EXTT8=
EXTT9=
EXTT10=
EXTT11=
EXTT12=
EXTT13=
EXTT14=
EXTT15=
EXTT16=
EXTT17=
EXTT18=
EXTT19=
EXTT20=
EXTT21=
EXTT22=
PLAYORDER=
